# xmcd
#
# Track frame offsets: 
#        150
#        12567
#        23541
#        35523
#        56894
#        68049
#        77541
#        88372
#        103868
#        119760
#        132504
#        147905
#        163459
#
# Disc length: 2305 seconds
#
# Revision: 0
# Processed by: cddbd v1.5.2PL0 Copyright (c) Steve Scherf et al.
# Submitted via: ExactAudioCopyFreeDBPlugin 1.0
#
DISCID=c008ff0d
DTITLE=Doraus and Klugs - König der Möwen
DYEAR=2018
DGENRE=Dramödie
TTITLE0=Feelingsgefühle
TTITLE1=Wie ein Kronkorken auf dem weiten Meer
TTITLE2=Drogenzug
TTITLE3=Wehr dich nicht
TTITLE4=Biologica
TTITLE5=Das Möwenthema
TTITLE6=So ist hier der 1. Mai
TTITLE7=Acht Euro am Tag
TTITLE8=Der momentane Moment
TTITLE9=Wir haben alte Leute gern
TTITLE10=Existieren und krepieren
TTITLE11=Willkommen im Hamburger Keller
TTITLE12=Das Möwenthema
EXTD=
EXTT0=
EXTT1=
EXTT2=
EXTT3=
EXTT4=
EXTT5=
EXTT6=
EXTT7=
EXTT8=
EXTT9=
EXTT10=
EXTT11=
EXTT12=
PLAYORDER=
